<svg aria-hidden="true" style="position: absolute; width: 0; height: 0; overflow: hidden;" version="1.1" xmlns="http://www.w3.org/2000/svg" xmlns:xlink="http://www.w3.org/1999/xlink">
<defs>
<symbol id="icon-facebook" viewBox="0 0 19 32">
<path fill="#565656" style="fill: var(--color1, #565656)" d="M16.779 18l0.889-5.791h-5.557v-3.758c0-1.584 0.776-3.129 3.265-3.129h2.526v-4.931c0 0-2.293-0.391-4.484-0.391-4.576 0-7.567 2.774-7.567 7.795v4.414h-5.087v5.791h5.087v14h6.261v-14h4.668z"></path>
</symbol>
<symbol id="icon-instagram" viewBox="0 0 35 32">
<path fill="#565656" style="fill: var(--color1, #565656)" d="M17.337 7.796c-4.541 0-8.204 3.663-8.204 8.204s3.663 8.204 8.204 8.204c4.541 0 8.204-3.663 8.204-8.204s-3.663-8.204-8.204-8.204zM17.337 21.334c-2.935 0-5.334-2.392-5.334-5.334s2.392-5.334 5.334-5.334c2.942 0 5.334 2.392 5.334 5.334s-2.399 5.334-5.334 5.334zM27.791 7.46c0 1.064-0.857 1.914-1.914 1.914-1.064 0-1.914-0.857-1.914-1.914s0.857-1.914 1.914-1.914c1.057 0 1.914 0.857 1.914 1.914zM33.225 9.402c-0.121-2.563-0.707-4.834-2.585-6.705-1.871-1.871-4.141-2.456-6.705-2.585-2.642-0.15-10.561-0.15-13.203 0-2.556 0.121-4.827 0.707-6.705 2.578s-2.456 4.141-2.585 6.705c-0.15 2.642-0.15 10.561 0 13.203 0.121 2.563 0.707 4.834 2.585 6.705s4.141 2.456 6.705 2.585c2.642 0.15 10.561 0.15 13.203 0 2.563-0.121 4.834-0.707 6.705-2.585 1.871-1.871 2.456-4.141 2.585-6.705 0.15-2.642 0.15-10.554 0-13.196zM29.812 25.433c-0.557 1.4-1.635 2.478-3.042 3.042-2.106 0.835-7.105 0.643-9.433 0.643s-7.333 0.186-9.433-0.643c-1.4-0.557-2.478-1.635-3.042-3.042-0.835-2.106-0.643-7.105-0.643-9.433s-0.186-7.333 0.643-9.433c0.557-1.4 1.635-2.478 3.042-3.042 2.106-0.835 7.105-0.643 9.433-0.643s7.333-0.186 9.433 0.643c1.4 0.557 2.478 1.635 3.042 3.042 0.835 2.106 0.643 7.105 0.643 9.433s0.193 7.333-0.643 9.433z"></path>
</symbol>
<symbol id="icon-linkedin" viewBox="0 0 33 32">
<path fill="#565656" style="fill: var(--color1, #565656)" d="M7.829 32h-6.634v-21.365h6.634v21.365zM4.508 7.721c-2.121 0-3.842-1.757-3.842-3.879 0-1.019 0.405-1.996 1.125-2.717s1.698-1.125 2.717-1.125c1.019 0 1.996 0.405 2.717 1.125s1.125 1.698 1.125 2.717c0 2.121-1.721 3.879-3.842 3.879zM32.66 32h-6.62v-10.4c0-2.479-0.050-5.657-3.449-5.657-3.449 0-3.978 2.693-3.978 5.479v10.579h-6.627v-21.365h6.363v2.914h0.093c0.886-1.679 3.049-3.45 6.277-3.45 6.714 0 7.949 4.422 7.949 10.165v11.736h-0.007z"></path>
</symbol>
<symbol id="icon-logo" viewBox="0 0 379 32">
<path d="M35.28 0.346v31.307h-5.333v-20.222c0-0.808 0.045-1.682 0.135-2.62l-9.833 17.775c-0.465 0.852-1.177 1.278-2.137 1.278h-0.855c-0.96 0-1.672-0.426-2.138-1.278l-9.945-17.84c0.045 0.476 0.082 0.945 0.112 1.407s0.045 0.888 0.045 1.277v20.222h-5.333v-31.307h4.568c0.27 0 0.502 0.007 0.698 0.022s0.367 0.051 0.518 0.108c0.165 0.058 0.308 0.152 0.428 0.281 0.135 0.13 0.262 0.303 0.383 0.52l9.743 17.386c0.255 0.462 0.488 0.938 0.698 1.429 0.225 0.491 0.442 0.996 0.652 1.516 0.21-0.534 0.428-1.046 0.652-1.537 0.225-0.505 0.465-0.989 0.72-1.451l9.608-17.342c0.12-0.216 0.247-0.39 0.382-0.52s0.278-0.224 0.427-0.281c0.165-0.058 0.345-0.094 0.54-0.108s0.427-0.022 0.698-0.022h4.567z"></path>
<path d="M82.23 19.832l-3.96-10.414c-0.195-0.462-0.398-1.010-0.607-1.645s-0.42-1.321-0.63-2.057c-0.195 0.736-0.397 1.429-0.607 2.078-0.21 0.635-0.413 1.191-0.607 1.667l-3.938 10.371h10.35zM92.917 31.654h-4.68c-0.525 0-0.952-0.123-1.282-0.368-0.33-0.26-0.578-0.577-0.742-0.953l-2.43-6.387h-13.478l-2.43 6.387c-0.12 0.332-0.353 0.635-0.698 0.909s-0.773 0.411-1.282 0.411h-4.725l12.802-31.307h6.165l12.78 31.307z"></path>
<path d="M146.213 0.346v31.307h-3.105c-0.48 0-0.885-0.072-1.215-0.217-0.315-0.159-0.623-0.419-0.923-0.779l-16.987-20.871c0.090 0.953 0.135 1.833 0.135 2.641v19.226h-5.333v-31.307h3.173c0.255 0 0.473 0.014 0.653 0.043 0.195 0.014 0.36 0.058 0.495 0.13 0.15 0.058 0.293 0.152 0.427 0.281 0.135 0.115 0.285 0.274 0.45 0.476l17.055 20.958c-0.045-0.505-0.082-1.003-0.113-1.494s-0.045-0.945-0.045-1.364v-19.031h5.333z"></path>
<path d="M182.033 31.654h-6.075v-31.307h6.075v31.307z"></path>
<path d="M217.893 4.98v9.267h12.195v4.655h-12.195v12.752h-6.075v-31.307h20.52v4.633h-14.445z"></path>
<path d="M265.882 4.98v8.682h11.385v4.482h-11.385v8.855h14.446v4.655h-20.521v-31.307h20.521v4.633h-14.446z"></path>
<path d="M325.515 6.041c-0.179 0.303-0.373 0.527-0.584 0.671-0.195 0.13-0.443 0.195-0.741 0.195-0.317 0-0.661-0.108-1.037-0.325-0.36-0.231-0.795-0.484-1.304-0.758s-1.109-0.52-1.8-0.736c-0.675-0.231-1.477-0.346-2.408-0.346-0.84 0-1.573 0.101-2.205 0.303-0.629 0.188-1.163 0.455-1.597 0.801-0.419 0.346-0.733 0.765-0.944 1.256-0.211 0.476-0.315 1.003-0.315 1.581 0 0.736 0.211 1.35 0.629 1.84 0.435 0.491 1.005 0.909 1.709 1.256 0.707 0.346 1.509 0.657 2.408 0.931 0.901 0.274 1.824 0.57 2.768 0.888 0.944 0.303 1.867 0.664 2.768 1.083 0.899 0.404 1.701 0.924 2.408 1.559 0.704 0.621 1.267 1.386 1.685 2.295 0.437 0.909 0.653 2.014 0.653 3.313 0 1.415-0.256 2.742-0.765 3.984-0.493 1.227-1.229 2.302-2.205 3.226-0.96 0.909-2.136 1.631-3.531 2.165-1.395 0.52-2.995 0.779-4.795 0.779-1.035 0-2.053-0.101-3.059-0.303-1.005-0.187-1.973-0.462-2.901-0.823-0.917-0.361-1.779-0.794-2.589-1.299s-1.531-1.068-2.16-1.689l1.779-2.793c0.149-0.202 0.344-0.368 0.584-0.498 0.24-0.144 0.496-0.217 0.765-0.217 0.376 0 0.781 0.152 1.216 0.455 0.435 0.289 0.952 0.613 1.552 0.974s1.296 0.693 2.093 0.996c0.808 0.289 1.776 0.433 2.901 0.433 1.725 0 3.059-0.39 4.005-1.169 0.944-0.794 1.416-1.927 1.416-3.399 0-0.823-0.216-1.494-0.651-2.014-0.421-0.52-0.984-0.953-1.688-1.299-0.704-0.361-1.507-0.664-2.408-0.909-0.899-0.245-1.816-0.512-2.744-0.801-0.931-0.289-1.845-0.635-2.747-1.039-0.899-0.404-1.701-0.931-2.405-1.581-0.707-0.65-1.277-1.458-1.712-2.425-0.419-0.982-0.629-2.187-0.629-3.616 0-1.14 0.232-2.252 0.699-3.334 0.48-1.083 1.168-2.042 2.069-2.88 0.899-0.837 2.011-1.508 3.331-2.014s2.835-0.758 4.544-0.758c1.92 0 3.691 0.289 5.309 0.866 1.621 0.577 3 1.386 4.141 2.425l-1.509 2.75z"></path>
<path d="M378.115 5.131h-9.811v26.522h-6.053v-26.522h-9.811v-4.785h25.675v4.785z"></path>
</symbol>
<symbol id="icon-search" viewBox="0 0 36 32">
<path d="M27.788 22.143l7.554 7.12c0.337 0.353 0.321 0.894-0.038 1.228l-1.322 1.246c-0.177 0.168-0.419 0.263-0.67 0.263s-0.493-0.095-0.671-0.263l-7.554-7.12c-0.209-0.197-0.399-0.411-0.567-0.641l-1.416-1.78c-2.344 1.764-5.254 2.724-8.253 2.723-6.18 0.020-11.55-3.998-12.931-9.675s1.596-11.499 7.168-14.018 12.253-1.064 16.086 3.505c3.834 4.568 3.798 11.031-0.087 15.561l1.888 1.228c0.295 0.178 0.567 0.387 0.812 0.623zM5.41 12.46c0 4.915 4.228 8.9 9.443 8.9 2.504 0 4.906-0.938 6.677-2.607s2.766-3.933 2.766-6.293c0-4.915-4.228-8.9-9.443-8.9s-9.443 3.985-9.443 8.9z"></path>
</symbol>
<symbol id="icon-twitter" viewBox="0 0 41 32">
<path fill="#fff" style="fill: var(--color2, #fff)" d="M36.316 7.975c0.025 0.35 0.025 0.7 0.025 1.050 0 10.675-8.125 22.975-22.975 22.975-4.575 0-8.825-1.325-12.4-3.625 0.65 0.075 1.275 0.1 1.95 0.1 3.775 0 7.25-1.275 10.025-3.45-3.55-0.075-6.525-2.4-7.55-5.6 0.5 0.075 1 0.125 1.525 0.125 0.725 0 1.45-0.1 2.125-0.275-3.7-0.75-6.475-4-6.475-7.925v-0.1c1.075 0.6 2.325 0.975 3.65 1.025-2.175-1.45-3.6-3.925-3.6-6.725 0-1.5 0.4-2.875 1.1-4.075 3.975 4.9 9.95 8.1 16.65 8.45-0.125-0.6-0.2-1.225-0.2-1.85 0-4.45 3.6-8.075 8.075-8.075 2.325 0 4.425 0.975 5.9 2.55 1.825-0.35 3.575-1.025 5.125-1.95-0.6 1.875-1.875 3.45-3.55 4.45 1.625-0.175 3.2-0.625 4.65-1.25-1.1 1.6-2.475 3.025-4.050 4.175z"></path>
</symbol>
<symbol id="icon-check-circle" viewBox="0 0 32 32">
<path fill="#ff6363" style="fill: var(--color3, #ff6363)" d="M16 0.5c-8.56 0-15.5 6.94-15.5 15.5s6.94 15.5 15.5 15.5c8.56 0 15.5-6.94 15.5-15.5s-6.94-15.5-15.5-15.5zM16 3.5c6.908 0 12.5 5.591 12.5 12.5 0 6.908-5.591 12.5-12.5 12.5-6.908 0-12.5-5.591-12.5-12.5 0-6.908 5.591-12.5 12.5-12.5zM24.763 11.642l-1.409-1.42c-0.292-0.294-0.767-0.296-1.061-0.004l-8.835 8.764-3.737-3.767c-0.292-0.294-0.767-0.296-1.061-0.004l-1.42 1.409c-0.294 0.292-0.296 0.767-0.004 1.061l5.674 5.72c0.292 0.294 0.767 0.296 1.061 0.004l10.787-10.7c0.294-0.292 0.296-0.767 0.004-1.061z"></path>
</symbol>
<symbol id="icon-circle-line" viewBox="0 0 32 32">
<path fill="#ff6363" style="fill: var(--color3, #ff6363)" d="M16 0.5c-8.56 0-15.5 6.94-15.5 15.5s6.94 15.5 15.5 15.5c8.56 0 15.5-6.94 15.5-15.5s-6.94-15.5-15.5-15.5zM16 3.5c6.908 0 12.5 5.591 12.5 12.5 0 6.908-5.591 12.5-12.5 12.5-6.908 0-12.5-5.591-12.5-12.5 0-6.908 5.591-12.5 12.5-12.5zM24.763 11.642l-1.409-1.42c-0.292-0.294-0.767-0.296-1.061-0.004l-8.835 8.764-3.737-3.767c-0.292-0.294-0.767-0.296-1.061-0.004l-1.42 1.409c-0.294 0.292-0.296 0.767-0.004 1.061l5.674 5.72c0.292 0.294 0.767 0.296 1.061 0.004l10.787-10.7c0.294-0.292 0.296-0.767 0.004-1.061z"></path>
</symbol>
<symbol id="icon-down-tick" viewBox="0 0 32 32">
<path  d="M14.939 23.842l-12.146-12.146c-0.586-0.586-0.586-1.536 0-2.121l1.417-1.417c0.585-0.585 1.533-0.586 2.119-0.002l9.672 9.626 9.672-9.626c0.586-0.583 1.534-0.582 2.119 0.002l1.417 1.417c0.586 0.586 0.586 1.536 0 2.121l-12.146 12.146c-0.586 0.586-1.536 0.586-2.121 0z"></path>
</symbol>
<symbol id="icon-facebook1" viewBox="0 0 32 32">
<path fill="#fff" style="fill: var(--color2, #fff)" d="M23.446 18l0.889-5.791h-5.557v-3.758c0-1.584 0.776-3.129 3.265-3.129h2.526v-4.931c0 0-2.293-0.391-4.484-0.391-4.576 0-7.567 2.774-7.567 7.795v4.414h-5.087v5.791h5.087v14h6.261v-14h4.668z"></path>
</symbol>
<symbol id="icon-linkedin1" viewBox="0 0 32 32">
<path fill="#5373fd" style="fill: var(--color4, #5373fd)" d="M28 2h-24.006c-1.1 0-1.994 0.906-1.994 2.019v23.963c0 1.113 0.894 2.019 1.994 2.019h24.006c1.1 0 2-0.906 2-2.019v-23.963c0-1.112-0.9-2.019-2-2.019zM10.463 26h-4.15v-13.363h4.156v13.363h-0.006zM8.387 10.813c-1.331 0-2.406-1.081-2.406-2.406s1.075-2.406 2.406-2.406c1.325 0 2.406 1.081 2.406 2.406 0 1.331-1.075 2.406-2.406 2.406zM26.019 26h-4.15v-6.5c0-1.55-0.031-3.544-2.156-3.544-2.163 0-2.494 1.688-2.494 3.431v6.613h-4.15v-13.363h3.981v1.825h0.056c0.556-1.050 1.913-2.156 3.931-2.156 4.2 0 4.981 2.769 4.981 6.369v7.325z"></path>
</symbol>
<symbol id="icon-pinterest" viewBox="0 0 32 32">
<path fill="#fff" style="fill: var(--color2, #fff)" d="M31.5 16c0 8.563-6.938 15.5-15.5 15.5-1.6 0-3.137-0.244-4.588-0.694 0.631-1.031 1.575-2.719 1.925-4.063 0.188-0.725 0.963-3.688 0.963-3.688 0.506 0.962 1.981 1.781 3.55 1.781 4.675 0 8.044-4.3 8.044-9.644 0-5.119-4.181-8.95-9.556-8.95-6.688 0-10.244 4.487-10.244 9.381 0 2.275 1.213 5.106 3.144 6.006 0.294 0.137 0.45 0.075 0.519-0.206 0.050-0.212 0.313-1.269 0.431-1.756 0.037-0.156 0.019-0.294-0.106-0.444-0.631-0.781-1.144-2.206-1.144-3.537 0-3.419 2.588-6.725 7-6.725 3.806 0 6.475 2.594 6.475 6.306 0 4.194-2.119 7.1-4.875 7.1-1.519 0-2.662-1.256-2.294-2.8 0.438-1.844 1.281-3.831 1.281-5.163 0-1.187-0.637-2.181-1.963-2.181-1.556 0-2.806 1.606-2.806 3.762 0 1.375 0.463 2.3 0.463 2.3s-1.531 6.488-1.813 7.7c-0.313 1.337-0.188 3.225-0.056 4.45-5.763-2.256-9.85-7.869-9.85-14.438 0-8.563 6.938-15.5 15.5-15.5s15.5 6.938 15.5 15.5z"></path>
</symbol>
<symbol id="icon-quote-left" viewBox="0 0 32 32">
<path fill="#5373fd" style="fill: var(--color4, #5373fd)" d="M29 16h-5v-4c0-2.206 1.794-4 4-4h0.5c0.831 0 1.5-0.669 1.5-1.5v-3c0-0.831-0.669-1.5-1.5-1.5h-0.5c-5.525 0-10 4.475-10 10v15c0 1.656 1.344 3 3 3h8c1.656 0 3-1.344 3-3v-8c0-1.656-1.344-3-3-3zM11 16h-5v-4c0-2.206 1.794-4 4-4h0.5c0.831 0 1.5-0.669 1.5-1.5v-3c0-0.831-0.669-1.5-1.5-1.5h-0.5c-5.525 0-10 4.475-10 10v15c0 1.656 1.344 3 3 3h8c1.656 0 3-1.344 3-3v-8c0-1.656-1.344-3-3-3z"></path>
</symbol>
<symbol id="icon-search1" viewBox="0 0 32 32">
<path fill="#fff" style="fill: var(--color2, #fff)" d="M31.565 27.666l-6.232-6.231c-0.281-0.281-0.663-0.437-1.063-0.437h-1.019c1.725-2.206 2.75-4.981 2.75-7.999 0-7.181-5.819-12.999-13.001-12.999s-13.001 5.818-13.001 12.999c0 7.18 5.819 12.999 13.001 12.999 3.019 0 5.794-1.025 8.001-2.75v1.019c0 0.4 0.156 0.781 0.437 1.062l6.232 6.231c0.588 0.587 1.538 0.587 2.119 0l1.769-1.769c0.588-0.587 0.588-1.537 0.006-2.125zM13.001 20.998c-4.419 0-8.001-3.575-8.001-7.999 0-4.418 3.575-7.999 8.001-7.999 4.419 0 8.001 3.575 8.001 7.999 0 4.418-3.575 7.999-8.001 7.999z"></path>
</symbol>
<symbol id="icon-search-blue" viewBox="0 0 32 32">
<path fill="#5373fd" style="fill: var(--color4, #5373fd)" d="M31.565 27.666l-6.232-6.231c-0.281-0.281-0.663-0.437-1.063-0.437h-1.019c1.725-2.206 2.75-4.981 2.75-7.999 0-7.181-5.819-12.999-13.001-12.999s-13.001 5.818-13.001 12.999 5.819 12.999 13.001 12.999c3.019 0 5.794-1.025 8.001-2.75v1.019c0 0.4 0.156 0.781 0.438 1.062l6.232 6.231c0.587 0.587 1.538 0.587 2.119 0l1.769-1.769c0.588-0.587 0.588-1.537 0.006-2.125zM13.001 20.998c-4.419 0-8.001-3.575-8.001-7.999 0-4.418 3.575-7.999 8.001-7.999 4.419 0 8.001 3.575 8.001 7.999 0 4.418-3.575 7.999-8.001 7.999z"></path>
</symbol>
<symbol id="icon-thumbs-up" viewBox="0 0 32 32">
<path fill="#00a2ff" style="fill: var(--color5, #00a2ff)" d="M29.142 17.918c0.548-0.928 0.858-1.918 0.858-3.115 0-2.751-2.326-5.349-5.364-5.349h-2.28c0.308-0.801 0.553-1.758 0.553-2.909 0-4.55-2.356-6.546-5.954-6.546-3.85 0-3.631 5.933-4.485 6.787-1.422 1.422-3.101 4.153-4.297 5.213h-6.173c-1.105 0-2 0.895-2 2v15c0 1.105 0.895 2 2 2h4c0.931 0 1.713-0.636 1.936-1.497 2.782 0.063 4.691 2.496 11.113 2.496 0.451 0 0.951 0.001 1.389 0.001 4.82 0 6.999-2.464 7.059-5.958 0.832-1.152 1.269-2.695 1.084-4.187 0.616-1.153 0.854-2.521 0.562-3.937zM25.282 21.282c0.785 1.321 0.079 3.088-0.871 3.598 0.481 3.049-1.101 4.119-3.32 4.119h-2.364c-4.477 0-7.377-2.364-10.727-2.364v-11.636h0.682c1.772 0 4.249-4.431 5.909-6.091 1.773-1.772 1.182-4.727 2.364-5.909 2.954 0 2.954 2.061 2.954 3.546 0 2.448-1.772 3.545-1.772 5.909h6.499c1.319 0 2.358 1.182 2.364 2.364s-0.801 2.363-1.392 2.363c0.843 0.91 1.023 2.827-0.326 4.101zM5.5 27c0 0.828-0.672 1.5-1.5 1.5s-1.5-0.672-1.5-1.5c0-0.828 0.672-1.5 1.5-1.5s1.5 0.672 1.5 1.5z"></path>
</symbol>
<symbol id="icon-twitter1" viewBox="0 0 32 32">
<path fill="#fff" style="fill: var(--color2, #fff)" d="M28.711 9.482c0.020 0.284 0.020 0.569 0.020 0.853 0 8.67-6.599 18.66-18.66 18.66-3.716 0-7.168-1.076-10.071-2.944 0.528 0.061 1.036 0.081 1.584 0.081 3.066 0 5.888-1.035 8.142-2.802-2.883-0.061-5.3-1.949-6.132-4.548 0.406 0.061 0.812 0.102 1.239 0.102 0.589 0 1.178-0.081 1.726-0.223-3.005-0.609-5.259-3.249-5.259-6.437v-0.081c0.873 0.487 1.888 0.792 2.964 0.832-1.766-1.178-2.924-3.188-2.924-5.462 0-1.218 0.325-2.335 0.893-3.31 3.228 3.98 8.081 6.579 13.523 6.863-0.101-0.487-0.162-0.995-0.162-1.503 0-3.614 2.924-6.558 6.558-6.558 1.888 0 3.594 0.792 4.792 2.071 1.482-0.284 2.904-0.832 4.162-1.584-0.487 1.523-1.523 2.802-2.883 3.614 1.32-0.142 2.599-0.508 3.777-1.015-0.893 1.299-2.010 2.457-3.289 3.391z"></path>
</symbol>
<symbol id="icon-youtube" viewBox="0 0 32 32">
<path fill="#fff" style="fill: var(--color2, #fff)" d="M30.536 8.671c-0.349-1.314-1.377-2.349-2.682-2.7-2.366-0.638-11.854-0.638-11.854-0.638s-9.488 0-11.854 0.638c-1.305 0.351-2.333 1.386-2.682 2.7-0.634 2.382-0.634 7.35-0.634 7.35s0 4.969 0.634 7.35c0.349 1.314 1.377 2.306 2.682 2.657 2.366 0.638 11.854 0.638 11.854 0.638s9.488 0 11.854-0.638c1.305-0.351 2.334-1.343 2.682-2.657 0.634-2.381 0.634-7.35 0.634-7.35s0-4.969-0.634-7.35zM12.897 20.533v-9.023l7.93 4.511-7.93 4.511z"></path>
</symbol>
<symbol id="icon-fly-line" viewBox="0 0 874 92" fill="none">
  <path opacity="0.502" d="M1 91C1 91 217.014 -110.278 442.118 91C442.118 91 639.939 -111.5 873 91" stroke="white" stroke-linecap="round" stroke-dasharray="2 5"/>
</symbol>
</defs>
</svg>
